<?xml version="1.0" encoding="iso-8859-1"?>
<!-- Generator: Adobe Illustrator 16.0.0, SVG Export Plug-In . SVG Version: 6.00 Build 0)  -->
<!DOCTYPE svg PUBLIC "-//W3C//DTD SVG 1.1//EN" "http://www.w3.org/Graphics/SVG/1.1/DTD/svg11.dtd">
<svg version="1.1" id="Capa_1" xmlns="http://www.w3.org/2000/svg" xmlns:xlink="http://www.w3.org/1999/xlink" x="0px" y="0px"
	 width="516.375px" height="516.375px" viewBox="0 0 516.375 516.375" style="enable-background:new 0 0 516.375 516.375;"
	 xml:space="preserve">
<g>
	<path d="M401.625,210.375v-66.938C401.625,65.025,336.6,0,258.188,0C179.775,0,114.75,65.025,114.75,143.438v66.938
		c-32.513,0-57.375,24.862-57.375,57.375v95.625c0,84.15,68.85,153,153,153H306c84.15,0,153-68.85,153-153V267.75
		C459,237.15,434.138,210.375,401.625,210.375z M267.75,361.463v49.725c0,5.737-3.825,9.562-9.562,9.562s-9.562-3.825-9.562-9.562
		v-49.725c-11.475-3.825-19.125-15.301-19.125-26.775c0-15.3,13.388-28.688,28.688-28.688s28.688,13.388,28.688,28.688
		C286.875,348.075,279.225,357.638,267.75,361.463z M344.25,210.375H172.125v-66.938c0-47.812,38.25-86.062,86.062-86.062
		s86.062,38.25,86.062,86.062V210.375z"/>
</g>
<g>
</g>
<g>
</g>
<g>
</g>
<g>
</g>
<g>
</g>
<g>
</g>
<g>
</g>
<g>
</g>
<g>
</g>
<g>
</g>
<g>
</g>
<g>
</g>
<g>
</g>
<g>
</g>
<g>
</g>
</svg>
